<svg height='100px' width='100px'  fill="#ffffff" xmlns="http://www.w3.org/2000/svg" xmlns:xlink="http://www.w3.org/1999/xlink" xmlns:xodm="http://www.corel.com/coreldraw/odm/2003" xml:space="preserve" version="1.1" style="shape-rendering:geometricPrecision;text-rendering:geometricPrecision;image-rendering:optimizeQuality;" viewBox="0 0 846.66 846.66" x="0px" y="0px" fill-rule="evenodd" clip-rule="evenodd"><defs><style type="text/css">
   
    .fil0 {fill:#ffffff}
   
  </style></defs><g><g><path class="fil0" d="M283.64 307.83l0 62.59c0,0.71 0.58,1.28 1.3,1.28l289.68 0c0.7,0 1.3,-0.59 1.3,-1.28l0 -62.59 -108.28 0c-5.53,-12.28 -20.11,-16.79 -33.3,-20.07l141.58 0 0 -62.59c0,-0.68 -0.6,-1.29 -1.3,-1.29l-39.53 0c6.34,-6.53 12.52,-13.23 18.48,-20.07l21.05 0c11.78,0 21.36,9.57 21.36,21.36l0 145.25c0,11.73 -9.61,21.35 -21.36,21.35l-289.68 0c-11.77,0 -21.36,-9.59 -21.36,-21.35l0 -145.25c0,-11.79 9.57,-21.36 21.36,-21.36l9.22 0c1.08,1.56 2.25,2.98 3.48,4.24 13.74,14.2 33.46,9.61 48.67,0.8 2.63,-1.52 5.26,-3.22 7.89,-5.04l4.31 0c5.52,9.97 15.88,16.42 26.41,20.07l-99.98 0c-0.69,0 -1.3,0.61 -1.3,1.29l0 62.59 104.61 0c3.1,11.4 12.55,16.66 23.08,20.07l-127.69 0zm311.38 117.01c20.3,0 36.9,-16.61 36.9,-36.91l0 -0.01c0,-17.57 -12.45,-32.38 -28.96,-36.04l0 18.54c0,7.79 -3.19,14.88 -8.32,20.01 -5.16,5.12 -12.24,8.31 -20.02,8.31l-289.68 0c-7.79,0 -14.87,-3.18 -20,-8.31 -5.15,-5.12 -8.34,-12.21 -8.34,-20.01l0 -19.4 -4.96 0c-20.3,0 -36.9,16.6 -36.9,36.9l0 0.01c0,20.3 16.6,36.91 36.9,36.91l-140.88 0c-48.82,0 -48.82,73.82 0,73.82l19.77 0 0 288.25c0,5.21 4.25,9.45 9.45,9.45l566.7 0c5.2,0 9.45,-4.24 9.45,-9.45l0 -288.25 19.77 0c48.82,0 48.82,-73.82 0,-73.82l-140.88 0zm-182.58 -107.17c0.54,3.9 2.04,7.48 5.28,9.9 6.86,5.12 30.53,5.29 30.53,-6.4 0,-15.8 -50.09,-7.67 -57.41,-33.58 -4.82,-17.2 5.57,-32.4 22.07,-37.57 2.58,-0.8 5.34,-1.39 8.27,-1.74 0,-4.87 -1.12,-12.12 2.73,-15.52 -0.06,13.03 4.78,25.56 15.25,33.66 -5.91,-2.33 -13.17,-2.23 -18.83,-0.68 -6.18,1.68 -12.67,7.59 -10.06,14.57 4.67,12.54 57.12,5.81 57.12,39.03 0,16.54 -13.47,26.05 -28.64,27.97l0 9.01c0,11.56 -17.57,11.56 -17.57,0l0 -9.33c-6.53,-1 -11.97,-3.04 -16.26,-6.09 -7.02,-4.92 -10.58,-12.23 -11.77,-20.56 -0.98,-6.82 18.21,-10.19 19.29,-2.67zm164.92 -151.27l-8.12 6.18c-25.05,33.75 -56.8,65.26 -89.44,91.73 -1.44,1.17 -3.08,1.92 -4.79,2.27 -26.85,5.48 -47.18,-12.2 -43.18,-40.56 0.23,-1.69 0.83,-3.23 1.71,-4.57 13.25,-20.32 33.8,-41.39 51.01,-58.85l-32.51 0.12c-7.65,21.16 -19.63,39.7 -36.3,54.91 -2.34,2.13 -5.35,3.08 -8.3,2.87 -18.48,-0.25 -45.12,-10.12 -45.48,-31.86 -12.82,10.39 -26.1,19.44 -38.18,20.79 -16.44,1.81 -28.53,-7.21 -31.72,-36.2 -0.02,-2.69 -0.07,-4.27 1.29,-6.78 11.38,-26.54 76.29,-86.04 104.49,-88.83l2.67 -0.17 176.85 0 0 -16c0,-6.16 5,-11.16 11.16,-11.16l79.56 0c6.16,0 11.16,5 11.16,11.16l0 129.6c0,6.16 -5,11.16 -11.16,11.16l-79.56 0c-6.16,0 -11.16,-5 -11.16,-11.16l0 -24.65zm0 -66.64l-177.36 0c-16.4,1.63 -84.29,60.84 -85.71,71.87 1.4,11.96 3.97,16 7.05,15.66 15.14,-1.64 47.16,-35.9 64.11,-46.05 1.01,-1.01 4.7,-1.65 6.15,-1.58l109.29 0.55 0.32 -14.11c0.28,-14.62 22.51,-14.19 22.23,0.43l-0.56 24.53c0,3.21 -1.05,6.06 -3.41,8.34 -21.82,20.96 -48.71,47.15 -65.83,72.07 -0.59,10.3 4.63,14.83 14.38,13.72 31.52,-26.42 61.9,-56.67 86.21,-89.77 1.95,-3.07 15.74,-8.9 23.13,-12.26l0 -43.4zm-179.2 62.16l-12.99 27.03c3.55,6.9 11.65,8.64 18.78,9.16 10.51,-10.37 18.64,-22.48 24.44,-36.04l-30.23 -0.15zm201.52 17.97l57.24 0 0 -107.28 -57.24 0 0 107.28z"></path></g></g></svg>